<?xml version="1.0" encoding="UTF-8"?>
<svg fill="none" viewBox="0 0 1280 457" xmlns="http://www.w3.org/2000/svg">
<g clip-path="url(#a)" fill="#ED1C24">
<path d="m223.5 2c-1.6 1-22.2 20.9-45.8 44.2-44.1 43.6-45.2 44.9-41.5 48.6 0.9 0.9 7.3 1.2 22.6 1.2 16.9 0 22.1 0.3 24.6 1.5 6.1 2.9001 6.1 2.6001 6.6 41.5 0.3 19.5 0.9 36.2 1.3 37.1 0.5 0.9 2.3 2.4 4 3.3 2.9 1.5 7 1.7 38.9 1.4l35.8-0.3 2.7-2.8 2.8-2.7 0.5-35.8c0.5-39.1 0.5-38.8 6.6-41.7 2.5-1.2 7.6-1.5 23.8-1.5 19.6 0 20.6-0.1 21.6-2 0.6-1.2 0.9-2.9 0.6-3.8-0.9-2.8-86.8-88-89.9-89.1-4.5-1.8-11.8-1.3-15.2 0.9z"/>
<path d="m755.1 77c-20.9 5.5-36.6 18.1-45.6 36.5-20.4 41.6 3.7 91.3 48.9 101.1 9.2 1.9 25.2 1.5 34.6-1.1 22.5-6 41.1-24 48.8-47.3 2.2-6.7 2.6-9.5 2.6-21.2 0.1-12.3-0.2-14.3-2.8-22.4-7.7-23.3-28.8-41.9-52.3-46.1-11.2-2-25.3-1.8-34.2 0.5zm27.4 28.4c12.2 2.6 21.4 9.9 26.6 20.9 5.9 12.6 5.8 25-0.1 37.2-6.1 12.6-14.6 19.4-27.5 22.1-10.1 2.1-15.9 1.5-23.9-2.5-25.9-12.7-30.4-52.4-8-70.7 9.3-7.7 19.7-9.9 32.9-7z"/>
<path d="m560 89.9v13l5.8 0.3 5.7 0.3 0.3 55.2 0.2 55.3h30v-55h52v55h31l0.2-55.3 0.3-55.2 5.8-0.3 5.7-0.3v-25.9h-15.5c-26.8 0-26.9 0.1-27.3 32.2l-0.3 22.8h-51.9v-22.8c0-24.4-0.3-25.9-5.3-29.6-2.6-1.9-4.4-2.1-19.8-2.4l-16.9-0.3v13z"/>
<path d="m850 90v13h13v101.7l2.3 3.4c3.8 5.6 6.8 6.1 35.2 5.6 22.2-0.3 25.7-0.6 31.6-2.5 13.5-4.4 23.2-13.4 27.5-25.2 1.9-5.5 2.3-19 0.6-24.7s-6.9-13.1-11.9-16.9c-4.1-3.2-4.2-3.2-2.2-5 1.1-1 3.6-5 5.5-9 3.3-6.5 3.6-8 3.6-15.6 0.1-15.2-5.4-25.5-17-31.6-10.4-5.6-15.7-6.2-53.9-6.2h-34.3v13zm69.4 15.4c4 2.6 5.9 7.2 5.3 13-0.4 4.1-1 5.5-4.1 8.3l-3.6 3.3h-24v-27.3l12 0.5c8.7 0.4 12.6 0.9 14.4 2.2zm5.1 53.6c4.3 4 5.8 7.7 5.3 13.2-0.6 5.8-3.1 9.6-7.9 12-2.7 1.4-6 1.8-16.1 1.8h-12.8v-30.1l14.4 0.3c13.8 0.3 14.6 0.4 17.1 2.8z"/>
<path d="m1016.2 79.7c-10.1 28.2-37.6 103.1-38.3 104.5-0.7 1.3-2.1 1.8-5.4 1.8h-4.5v28h11.3c19.4 0 21-1.2 28.7-20.8l5.2-13.2h38.5l5.3 13.2c2.9 7.3 6.4 14.5 7.8 16.1 3.5 3.7 7.8 4.7 20 4.7h10.2v-28h-7.8l-3.9-10.8c-2.2-5.9-11.1-30.4-19.9-54.5l-15.8-43.7h-30.4l-1 2.7zm22.4 58.3c2.4 7.4 4.4 13.8 4.4 14.2 0 0.5-4.9 0.8-10.9 0.8h-11l4.9-14.8c2.7-8.1 5.2-16.1 5.6-17.7l0.7-3 0.9 3.5c0.5 1.9 2.9 9.6 5.4 17z"/>
<path d="m44.9 177.7l-44.9 44.8v9.9l44.8 44.9c43.3 43.4 44.8 44.8 48.2 44.5l3.5-0.3 0.3-92c0.1-50.6 0-93-0.3-94.3-0.4-1.7-1.3-2.2-3.6-2.2-2.8 0-8.2 5.1-48 44.7z"/>
<path d="m369.7 135.6c-0.4 0.4-0.7 41.8-0.7 92 0 89.3 0 91.4 1.9 92.4 1.1 0.5 2.2 1 2.6 1 0.3 0 20.8-20.1 45.6-44.8 40.7-40.5 44.9-45 44.9-47.9 0-1.8-0.5-4.3-1.1-5.6-1.7-3.6-87.9-87.2-90.3-87.5-1.2-0.2-2.5 0-2.9 0.4z"/>
<path d="m759.8 250c-20.6 3.7-37.1 14.3-48 30.9-6.8 10.4-9.9 20.8-10.6 34.8-0.6 14.1 1.3 23.4 7.5 36.3 3.9 8.1 5.9 10.8 13.2 18.1 16.3 16.1 34.2 22.4 57.1 19.9s42.2-14.3 52.9-32.3c24.8-41.9 5.2-93.6-40.1-105.6-8.4-2.2-25.1-3.3-32-2.1zm22.7 30.5c24.3 5.5 35.8 35.3 23.3 59.9-2.4 4.8-9.9 12.9-14.5 15.7-4.8 3-19.7 6.1-25.3 5.4-14.8-2.1-28.2-15.2-32-31.3-4.6-19.6 3.7-39.4 19.9-47.7 9.6-4.8 14.8-5.2 28.6-2z"/>
<path d="m560 265v13h12v110h30v-110h49.9l0.3 51.5 0.3 51.5 3.3 3.2 3.2 3.3 17.5 0.3 17.5 0.3v-27l-5.2-0.3-5.3-0.3-0.5-50c-0.5-54.3-0.4-52.9-6.3-56.5-3.1-1.9-5.5-2-59.9-2h-56.8v13z"/>
<path d="m848 265v13h12l0.1 49.2c0 35.5 0.3 50.3 1.2 52.8 0.7 1.9 2.7 4.4 4.6 5.7l3.4 2.3h72.1c55.2 0 72.7-0.3 74.5-1.3 1.3-0.6 3.4-2.5 4.5-4 2.1-2.8 2.1-3.8 2.4-53.8l0.3-50.9h11.9v-26h-16.5c-13.1 0-17.2 0.3-19.6 1.6-5.8 3-5.9 3.5-5.9 57.9v49.5h-36v-109h-31v109h-34.9l-0.3-49.8c-0.3-45.3-0.5-50-2.1-52.9-3-5.6-5.7-6.3-24.2-6.3h-16.5v13z"/>
<path d="m1050 253.3c-4.8 2.4-6 6.8-6 22.4v14.3h28v-12h17v110h31v-110h17v12h28.1l-0.3-16c-0.3-15.9-0.3-16-3.1-18.7l-2.7-2.8-53.3-0.2c-41.3-0.2-53.8 0-55.7 1z"/>
<path d="m1201.2 254.7c-10.1 28.2-37.6 103.1-38.3 104.5-0.7 1.3-2.1 1.8-5.4 1.8h-4.5v27h12.5c13.7 0 18-1.1 20.6-5.1 0.9-1.3 4-8.4 6.9-15.7l5.3-13.2h38.3l6 14.7c7.7 19.2 7.8 19.3 25 19.3h12.4v-27h-3.5c-2.3 0-3.8-0.6-4.4-1.8-0.8-1.4-33.1-89.3-37.8-103l-1.5-4.2h-30.6l-1 2.7zm17.8 43c0 1.2 2.2 8.5 4.9 16.2l5 14.1h-22.8l4.9-14.8c2.8-8.1 5.2-16 5.6-17.6 0.4-2.3 0.7-2.7 1.5-1.5 0.5 0.7 0.9 2.4 0.9 3.6z"/>
<path d="m195.3 274c-1.7 1-3.7 2.8-4.2 3.9-0.7 1.3-1.1 14-1.1 36.3 0 18.9-0.5 36.1-1 38.3-0.5 2.4-2.1 5.1-4 6.8l-3 2.7h-21.3c-21.6 0-23.7 0.3-23.7 3.8 0 1.5 83.5 86.5 87.9 89.4 1.6 1.1 4.5 1.8 7.6 1.8h4.9l44.8-44.7c24.7-24.6 44.8-45.5 44.8-46.5 0-3.2-3.5-3.8-23-3.8-16.1 0-19.6-0.3-22-1.7-5.4-3.1-5.5-3.8-6-44.4-0.4-31.4-0.7-37.9-2-39.4-3.5-4.2-6.4-4.5-41.7-4.5-31.7 0-34 0.1-37 2z"/>
</g>
<defs>
<clipPath id="a">
<rect width="1280" height="457" fill="#fff"/>
</clipPath>
</defs>
</svg>
