<svg width="464" height="457" viewBox="0 0 464 457" fill="none" xmlns="http://www.w3.org/2000/svg">
<path d="M223.5 1.99995C221.9 2.99995 201.3 22.8999 177.7 46.1999C133.6 89.7999 132.5 91.0999 136.2 94.7999C137.1 95.6999 143.5 95.9999 158.8 95.9999C175.7 95.9999 180.9 96.2999 183.4 97.4999C189.5 100.4 189.5 100.1 190 139C190.3 158.5 190.9 175.2 191.3 176.1C191.8 177 193.6 178.5 195.3 179.4C198.2 180.9 202.3 181.1 234.2 180.8L270 180.5L272.7 177.7L275.5 175L276 139.2C276.5 100.1 276.5 100.4 282.6 97.4999C285.1 96.2999 290.2 95.9999 306.4 95.9999C326 95.9999 327 95.8999 328 93.9999C328.6 92.7999 328.9 91.0999 328.6 90.1999C327.7 87.3999 241.8 2.19995 238.7 1.09995C234.2 -0.700052 226.9 -0.200052 223.5 1.99995Z" fill="#ED1C24"/>
<path d="M44.9 177.7L0 222.5V227.5V232.4L44.8 277.3C88.1 320.7 89.6 322.1 93 321.8L96.5 321.5L96.8 229.5C96.9 178.9 96.8 136.5 96.5 135.2C96.1 133.5 95.2 133 92.9 133C90.1 133 84.7 138.1 44.9 177.7Z" fill="#ED1C24"/>
<path d="M369.7 135.6C369.3 136 369 177.4 369 227.6C369 316.9 369 319 370.9 320C372 320.5 373.1 321 373.5 321C373.8 321 394.3 300.9 419.1 276.2C459.8 235.7 464 231.2 464 228.3C464 226.5 463.5 224 462.9 222.7C461.2 219.1 375 135.5 372.6 135.2C371.4 135 370.1 135.2 369.7 135.6Z" fill="#ED1C24"/>
<path d="M195.3 274C193.6 275 191.6 276.8 191.1 277.9C190.4 279.2 190 291.9 190 314.2C190 333.1 189.5 350.3 189 352.5C188.5 354.9 186.9 357.6 185 359.3L182 362H160.7C139.1 362 137 362.3 137 365.8C137 367.3 220.5 452.3 224.9 455.2C226.5 456.3 229.4 457 232.5 457H237.4L282.2 412.3C306.9 387.7 327 366.8 327 365.8C327 362.6 323.5 362 304 362C287.9 362 284.4 361.7 282 360.3C276.6 357.2 276.5 356.5 276 315.9C275.6 284.5 275.3 278 274 276.5C270.5 272.3 267.6 272 232.3 272C200.6 272 198.3 272.1 195.3 274Z" fill="#ED1C24"/>
</svg>
