<?xml version="1.0" encoding="UTF-8"?>
<svg viewBox="0 0 914 184" xmlns="http://www.w3.org/2000/svg">
<path d="m424.55 127.91v-35.52h-16.258v1.5181c0 3.7395-0.217 7.3238-0.644 10.751-0.43 3.429-0.993 6.601-1.695 9.522-0.703 2.921-1.444 5.549-2.224 7.887-0.779 2.337-1.52 4.285-2.221 5.842h23.042zm-46.553 0h7.252c0.857-1.712 1.735-3.856 2.632-6.426 0.896-2.571 1.714-5.452 2.457-8.647 0.739-3.192 1.344-6.659 1.812-10.399 0.468-3.739 0.702-7.6713 0.702-11.801v-10.633h48.308v47.906h7.837v29.094h-15.557v-16.591h-39.886v16.591h-15.557v-29.094z" clip-rule="evenodd" fill="#FF8300" fill-rule="evenodd"/>
<path d="m485.94 129.53c2.782 0 5.118-0.548 7.011-1.647 1.893-1.098 3.4-2.568 4.521-4.412 1.118-1.842 1.911-3.921 2.374-6.235 0.464-2.312 0.696-4.686 0.696-7.118 0-2.43-0.232-4.824-0.696-7.177-0.463-2.352-1.256-4.4302-2.374-6.2346-1.121-1.8033-2.628-3.2738-4.521-4.4117-1.893-1.1367-4.229-1.7062-7.011-1.7062-2.781 0-5.099 0.5695-6.953 1.7062-1.855 1.1379-3.343 2.6084-4.461 4.4117-1.121 1.8044-1.913 3.8826-2.376 6.2346-0.464 2.353-0.695 4.747-0.695 7.177 0 2.432 0.231 4.806 0.695 7.118 0.463 2.314 1.255 4.393 2.376 6.235 1.118 1.844 2.606 3.314 4.461 4.412 1.854 1.099 4.172 1.647 6.953 1.647zm0 12.47c-4.714 0-8.963-0.746-12.748-2.234-3.785-1.49-7.03-3.627-9.734-6.413-2.705-2.782-4.791-6.136-6.258-10.058-1.468-3.922-2.202-8.313-2.202-13.177 0-4.862 0.734-9.275 2.202-13.235 1.467-3.9594 3.553-7.3327 6.258-10.118 2.704-2.7836 5.949-4.9421 9.734-6.4707 3.785-1.5297 8.034-2.2946 12.748-2.2946 4.712 0 8.982 0.7649 12.805 2.2946 3.826 1.5286 7.088 3.6871 9.794 6.4707 2.703 2.7848 4.789 6.1581 6.257 10.118 1.467 3.9602 2.202 8.3732 2.202 13.235 0 4.864-0.735 9.255-2.202 13.177-1.468 3.922-3.554 7.276-6.257 10.058-2.706 2.786-5.968 4.923-9.794 6.413-3.823 1.488-8.093 2.234-12.805 2.234z" clip-rule="evenodd" fill="#FF8300" fill-rule="evenodd"/>
<path d="m556.71 142c-4.628 0-8.823-0.765-12.588-2.293-3.765-1.53-6.981-3.666-9.648-6.413-2.666-2.744-4.745-6.019-6.235-9.823s-2.235-7.98-2.235-12.529c0-4.707 0.687-9.078 2.059-13.119 1.371-4.0387 3.391-7.5292 6.059-10.47 2.665-2.9411 5.921-5.2357 9.764-6.8815 3.842-1.647 8.236-2.4711 13.177-2.4711 3.607 0 7.077 0.4701 10.412 1.4114 3.332 0.9413 6.312 2.3739 8.941 4.2944 2.627 1.9229 4.764 4.3347 6.412 7.2356 1.647 2.902 2.589 6.2753 2.823 10.118h-16.352c-1.099-6.98-5.217-10.47-12.353-10.47-2.668 0-4.903 0.6086-6.706 1.8234-1.806 1.216-3.275 2.7849-4.412 4.7053-1.138 1.9229-1.942 4.0588-2.412 6.4128-0.47 2.353-0.706 4.628-0.706 6.822 0 2.198 0.236 4.433 0.706 6.707 0.47 2.275 1.235 4.334 2.294 6.177s2.49 3.353 4.294 4.53c1.803 1.175 4.001 1.764 6.589 1.764 4 0 7.077-1.118 9.235-3.353 2.156-2.236 3.51-5.236 4.058-9h16.118c-1.099 8.079-4.235 14.235-9.412 18.471-5.176 4.235-11.804 6.352-19.882 6.352z" clip-rule="evenodd" fill="#FF8300" fill-rule="evenodd"/>
<path d="M610.104 92.4179H590V80H647V92.4179H626.896V140H610.104V92.4179Z" clip-rule="evenodd" fill="#FF8300" fill-rule="evenodd"/>
<path d="m678.26 130.94c3.333 0 5.911-0.548 7.737-1.647 1.826-1.097 3.174-2.412 4.048-3.941 0.873-1.53 1.408-3.078 1.607-4.648 0.198-1.567 0.299-2.822 0.299-3.764v-6.235c-0.715 0.628-1.589 1.118-2.62 1.47-1.032 0.354-2.184 0.647-3.453 0.883-1.27 0.236-2.579 0.432-3.927 0.588-1.351 0.158-2.699 0.353-4.048 0.589-1.351 0.234-2.619 0.548-3.81 0.941-1.19 0.393-2.243 0.922-3.155 1.588-0.913 0.667-1.647 1.511-2.202 2.529-0.556 1.021-0.834 2.315-0.834 3.882 0 1.57 0.278 2.844 0.834 3.824 0.555 0.981 1.31 1.765 2.262 2.353 0.953 0.588 2.063 1 3.333 1.235 1.269 0.235 2.578 0.353 3.929 0.353zm-6.309 11.059c-2.938 0-5.676-0.353-8.215-1.059-2.541-0.705-4.762-1.803-6.667-3.293-1.904-1.49-3.393-3.373-4.464-5.648-1.071-2.274-1.607-4.98-1.607-8.118 0-3.45 0.613-6.294 1.845-8.53 1.231-2.235 2.817-4.018 4.763-5.353 1.943-1.332 4.165-2.332 6.666-2.999 2.5-0.665 5.019-1.194 7.559-1.589 2.54-0.392 5.039-0.705 7.501-0.94 2.459-0.235 4.643-0.589 6.546-1.06 1.905-0.47 3.413-1.156 4.525-2.059 1.11-0.899 1.625-2.2148 1.548-3.9399 0-1.7252-0.299-3.1365-0.893-4.2365-0.596-1.0964-1.39-1.9406-2.382-2.5291-0.993-0.5884-2.142-0.9791-3.452-1.1757-1.309-0.1954-2.719-0.2948-4.225-0.2948-3.335 0-5.954 0.7057-7.858 2.1182-1.905 1.4114-3.018 3.764-3.334 7.0591h-16.904c0.238-3.8433 1.229-7.078 2.976-9.7066 1.745-2.6261 3.967-4.7242 6.666-6.2942 2.697-1.5677 5.715-2.6854 9.048-3.3532 3.334-0.6654 6.745-0.9993 10.238-0.9993 3.095 0 6.23 0.2167 9.405 0.6465 3.173 0.4321 6.071 1.2764 8.69 2.5302 2.619 1.2551 4.763 3.0205 6.429 5.2938 1.667 2.2757 2.5 5.2168 2.5 8.8233v31.648c0 2.745 0.158 5.373 0.476 7.882 0.317 2.511 0.873 4.394 1.667 5.646h-17.142c-0.319-0.941-0.578-1.9-0.774-2.882-0.199-0.979-0.34-1.979-0.417-3-2.7 2.747-5.875 4.667-9.524 5.765-3.652 1.098-7.381 1.647-11.19 1.647z" clip-rule="evenodd" fill="#FF8300" fill-rule="evenodd"/>
<path d="m750.74 129.32c1.407 0 2.775-0.095 4.105-0.289 1.329-0.193 2.501-0.561 3.518-1.103 1.016-0.541 1.836-1.335 2.463-2.379 0.626-1.045 0.939-2.418 0.939-4.119 0-1.702-0.333-3.094-0.997-4.178-0.665-1.083-1.545-1.896-2.639-2.438-1.095-0.541-2.347-0.909-3.754-1.102s-2.854-0.29-4.339-0.29h-11.611v15.898h12.315zm-1.29-25.183c1.25 0 2.463-0.076 3.635-0.232 1.174-0.154 2.229-0.482 3.167-0.987 0.939-0.502 1.681-1.198 2.229-2.089 0.546-0.8878 0.82-2.106 0.82-3.6548 0-1.4693-0.274-2.6501-0.82-3.5401-0.548-0.8877-1.273-1.5663-2.17-2.0299-0.899-0.4649-1.956-0.7732-3.167-0.9286-1.213-0.1553-2.444-0.2324-3.694-0.2324h-11.025v13.694h11.025zm-27.445-24.139h34.834c2.657 0 5.16 0.2908 7.506 0.8701 2.345 0.5805 4.398 1.4705 6.158 2.67 1.759 1.2007 3.145 2.767 4.163 4.7 1.015 1.9341 1.525 4.2175 1.525 6.8466 0 2.9421-0.745 5.4743-2.229 7.6013-1.486 2.129-3.479 3.734-5.982 4.817 3.127 0.852 5.748 2.457 7.859 4.815 2.111 2.362 3.166 5.63 3.166 9.808 0 2.941-0.526 5.512-1.583 7.716-1.055 2.206-2.521 4.063-4.398 5.572-1.877 1.508-4.066 2.651-6.569 3.423-2.502 0.774-5.159 1.161-7.974 1.161h-36.476v-60z" clip-rule="evenodd" fill="#FF8300" fill-rule="evenodd"/>
<path d="M790 80H806.436V104.488L828.428 80H847.759L822.758 106.46L851 140H831.09L809.909 115.049L806.436 118.878V140H790V80Z" clip-rule="evenodd" fill="#FF8300" fill-rule="evenodd"/>
<path d="m881.81 130.94c3.278 0 5.813-0.548 7.609-1.647 1.795-1.097 3.121-2.412 3.981-3.941 0.857-1.53 1.384-3.078 1.58-4.648 0.194-1.567 0.293-2.822 0.293-3.764v-6.235c-0.702 0.628-1.562 1.118-2.575 1.47-1.016 0.354-2.148 0.647-3.396 0.883-1.249 0.236-2.536 0.432-3.862 0.588-1.329 0.158-2.654 0.353-3.981 0.589-1.327 0.234-2.575 0.548-3.746 0.941-1.17 0.393-2.206 0.922-3.102 1.588-0.898 0.667-1.62 1.511-2.166 2.529-0.546 1.021-0.82 2.315-0.82 3.882 0 1.57 0.274 2.844 0.82 3.824 0.546 0.981 1.288 1.765 2.225 2.353 0.936 0.588 2.028 1 3.277 1.235 1.248 0.235 2.536 0.353 3.863 0.353zm-6.204 11.059c-2.889 0-5.581-0.353-8.077-1.059-2.499-0.705-4.683-1.803-6.556-3.293-1.872-1.49-3.337-3.373-4.39-5.648-1.053-2.274-1.58-4.98-1.58-8.118 0-3.45 0.603-6.294 1.814-8.53 1.21-2.235 2.77-4.018 4.683-5.353 1.911-1.332 4.097-2.332 6.556-2.999 2.458-0.665 4.935-1.194 7.432-1.589 2.498-0.392 4.956-0.705 7.377-0.94 2.417-0.235 4.565-0.589 6.437-1.06 1.873-0.47 3.355-1.156 4.449-2.059 1.092-0.899 1.599-2.2148 1.522-3.9399 0-1.7252-0.293-3.1365-0.878-4.2365-0.585-1.0964-1.366-1.9406-2.342-2.5291-0.977-0.5884-2.106-0.9791-3.394-1.1757-1.288-0.1954-2.674-0.2948-4.155-0.2948-3.279 0-5.855 0.7057-7.727 2.1182-1.873 1.4114-2.967 3.764-3.278 7.0591h-16.623c0.235-3.8433 1.209-7.078 2.927-9.7066 1.715-2.6261 3.901-4.7242 6.555-6.2942 2.652-1.5677 5.62-2.6854 8.897-3.3532 3.278-0.6654 6.632-0.9993 10.067-0.9993 3.044 0 6.127 0.2167 9.249 0.6465 3.119 0.4321 5.969 1.2764 8.545 2.5302 2.575 1.2551 4.683 3.0205 6.322 5.2938 1.639 2.2757 2.457 5.2168 2.457 8.8233v31.648c0 2.745 0.156 5.373 0.469 7.882 0.311 2.511 0.858 4.394 1.639 5.646h-16.857c-0.313-0.941-0.568-1.9-0.761-2.882-0.195-0.979-0.333-1.979-0.41-3-2.654 2.747-5.776 4.667-9.365 5.765-3.591 1.098-7.257 1.647-11.004 1.647z" clip-rule="evenodd" fill="#FF8300" fill-rule="evenodd"/>
<path d="m324.12 101.83c0 3.537-2.868 6.405-6.405 6.405h-13.216c-2.456 0-4.809-0.987-6.53-2.738l-12.956-13.183c-1.768-1.799-4.812-3.271-7.8-3.271h-17.09l5e-3 -33.83c0-3.541 2.871-6.411 6.412-6.411h23.153c2.357 0 4.8 1.017 6.398 2.75l25.036 30.379c1.782 1.933 2.993 4.519 2.993 7.149v12.75zm22.506-22.243c-8.475-10.261-33.285-40.293-40.497-48.978-1.218-1.467-3.022-2.311-4.929-2.311h-44.903v-18.593c0-5.358-4.343-9.702-9.701-9.702h-168.04c-5.358 0-9.701 4.344-9.701 9.701l-0.032 39.098-19.984-0.056c-5.149 0-9.646 3.885-9.979 9.024-0.365 5.631 4.095 10.313 9.648 10.313h20.347v20.832c0 0.018-0.014 0.032-0.032 0.032h-58.822c-5.15 0-9.646 3.886-9.98 9.025-0.365 5.631 4.095 10.312 9.648 10.312h59.153c0.018 0 0.033 0.015 0.033 0.033v38.84c0 5.358 4.343 9.701 9.701 9.701h19.585c0.076-7.354 2.7571-14.093 7.1671-19.337h-17.084c-0.017 0-0.032-0.014-0.032-0.032v-22.819c0-3.512 2.873-6.386 6.386-6.386h82.862c5.149 0 9.646-3.886 9.979-9.025 0.364-5.631-4.095-10.312-9.648-10.312h-89.547c-0.018 0-0.032-0.014-0.032-0.032v-14.418c0-3.543 2.872-6.414 6.414-6.414h105.87c5.15 0 9.646-3.886 9.979-9.025 0.365-5.631-4.095-10.312-9.648-10.312h-112.61v-22.995c0-3.541 2.87-6.411 6.41-6.411h135.89c3.571 0 6.465 2.895 6.465 6.466v111.68c0 0.018-0.014 0.032-0.032 0.032h-84.795c4.41 5.244 7.092 11.983 7.168 19.337h104.88c0-16.906 13.706-30.611 30.611-30.611 16.378 0 29.752 12.862 30.572 29.036 0.044 0.875 0.739 1.575 1.616 1.575h12.169c6.927 0 10.337-4.532 10.337-11.459 0-16.784 0-46.79-1e-3 -57.852 0-2.908-1.012-5.718-2.864-7.96z" clip-rule="evenodd" fill="#FF8300" fill-rule="evenodd"/>
<path d="m294.32 166.99c-5.412 0-9.816-4.404-9.816-9.816 0-5.413 4.404-9.817 9.816-9.817 5.413 0 9.816 4.404 9.816 9.817 0 5.412-4.403 9.816-9.816 9.816zm0-36.044c-14.462 0-26.228 11.766-26.228 26.228s11.766 26.228 26.228 26.228 26.228-11.766 26.228-26.228-11.766-26.228-26.228-26.228z" clip-rule="evenodd" fill="#FF8300" fill-rule="evenodd"/>
<path d="m128.69 166.99c-5.413 0-9.816-4.404-9.816-9.816 0-5.413 4.403-9.817 9.816-9.817 5.412 0 9.816 4.404 9.816 9.817 0 5.412-4.404 9.816-9.816 9.816zm0-36.044c-14.462 0-26.228 11.766-26.228 26.228s11.766 26.228 26.228 26.228 26.228-11.766 26.228-26.228-11.766-26.228-26.228-26.228z" clip-rule="evenodd" fill="#FF8300" fill-rule="evenodd"/>
</svg>
